{
    "accessors" : [
        {
            "bufferView" : 0, 
            "componentType" : 5121, 
            "count" : 36, 
            "max" : [
                23
            ], 
            "min" : [
                0
            ], 
            "type" : "SCALAR"
        }, 
        {
            "bufferView" : 1, 
            "componentType" : 5126, 
            "count" : 24, 
            "max" : [
                1.0, 
                1.0, 
                1.0
            ], 
            "min" : [
                -1.0, 
                -1.0, 
                -1.0
            ], 
            "type" : "VEC3"
        }, 
        {
            "bufferView" : 2, 
            "componentType" : 5126, 
            "count" : 24, 
            "max" : [
                1.0, 
                1.0, 
                1.0
            ], 
            "min" : [
                -1.0, 
                -1.0, 
                -1.0
            ], 
            "type" : "VEC3"
        }, 
        {
            "bufferView" : 3, 
            "componentType" : 5123, 
            "count" : 7200, 
            "max" : [
                4799
            ], 
            "min" : [
                0
            ], 
            "type" : "SCALAR"
        }, 
        {
            "bufferView" : 4, 
            "componentType" : 5126, 
            "count" : 4800, 
            "max" : [
                0.9960587024688721, 
                1.0, 
                0.9980291724205017
            ], 
            "min" : [
                -0.9960588812828064, 
                -1.0, 
                -0.9980267286300659
            ], 
            "type" : "VEC3"
        }, 
        {
            "bufferView" : 5, 
            "componentType" : 5126, 
            "count" : 4800, 
            "max" : [
                1.0, 
                0.9980162978172302, 
                0.9980162978172302
            ], 
            "min" : [
                -1.0, 
                -0.9980162978172302, 
                -0.9980162978172302
            ], 
            "type" : "VEC3"
        }, 
        {
            "bufferView" : 6, 
            "componentType" : 5123, 
            "count" : 5388, 
            "max" : [
                3199
            ], 
            "min" : [
                0
            ], 
            "type" : "SCALAR"
        }, 
        {
            "bufferView" : 7, 
            "componentType" : 5126, 
            "count" : 3200, 
            "max" : [
                1.5669100284576416, 
                2.0933139324188232, 
                1.5669102668762207
            ], 
            "min" : [
                -1.5669100284576416, 
                -1.010333776473999, 
                -1.5669097900390625
            ], 
            "type" : "VEC3"
        }, 
        {
            "bufferView" : 8, 
            "componentType" : 5126, 
            "count" : 3200, 
            "max" : [
                0.999481201171875, 
                1.0, 
                0.999481201171875
            ], 
            "min" : [
                -0.999481201171875, 
                -1.0, 
                -0.999481201171875
            ], 
            "type" : "VEC3"
        }, 
        {
            "bufferView" : 9, 
            "componentType" : 5126, 
            "count" : 100, 
            "max" : [
                4.125
            ], 
            "min" : [
                0.0
            ], 
            "type" : "SCALAR"
        }, 
        {
            "bufferView" : 10, 
            "componentType" : 5126, 
            "count" : 100, 
            "max" : [
                0.032253313809633255, 
                4.622808456420898, 
                7.400707721710205
            ], 
            "min" : [
                -0.007260576356202364, 
                0.8189839720726013, 
                -7.9131245613098145
            ], 
            "type" : "VEC3"
        }, 
        {
            "bufferView" : 11, 
            "componentType" : 5126, 
            "count" : 100, 
            "max" : [
                4.125
            ], 
            "min" : [
                0.0
            ], 
            "type" : "SCALAR"
        }, 
        {
            "bufferView" : 12, 
            "componentType" : 5126, 
            "count" : 100, 
            "max" : [
                0.04400167614221573, 
                0.028350770473480225, 
                0.002957063028588891, 
                1.0
            ], 
            "min" : [
                -0.03234829008579254, 
                0.0, 
                -0.01590130664408207, 
                0.9990315437316895
            ], 
            "type" : "VEC4"
        }
    ], 
    "animations" : [
        {
            "channels" : [
                {
                    "sampler" : 0, 
                    "target" : {
                        "node" : 3, 
                        "path" : "translation"
                    }
                }, 
                {
                    "sampler" : 1, 
                    "target" : {
                        "node" : 3, 
                        "path" : "rotation"
                    }
                }
            ], 
            "samplers" : [
                {
                    "input" : 9, 
                    "interpolation" : "LINEAR", 
                    "output" : 10
                }, 
                {
                    "input" : 11, 
                    "interpolation" : "LINEAR", 
                    "output" : 12
                }
            ]
        }
    ], 
    "asset" : {
        "generator" : "Khronos Blender glTF 2.0 exporter", 
        "version" : "2.0"
    }, 
    "bufferViews" : [
        {
            "buffer" : 0, 
            "byteLength" : 36, 
            "byteOffset" : 0, 
            "target" : 34963
        }, 
        {
            "buffer" : 0, 
            "byteLength" : 288, 
            "byteOffset" : 36, 
            "target" : 34962
        }, 
        {
            "buffer" : 0, 
            "byteLength" : 288, 
            "byteOffset" : 324, 
            "target" : 34962
        }, 
        {
            "buffer" : 0, 
            "byteLength" : 14400, 
            "byteOffset" : 612, 
            "target" : 34963
        }, 
        {
            "buffer" : 0, 
            "byteLength" : 57600, 
            "byteOffset" : 15012, 
            "target" : 34962
        }, 
        {
            "buffer" : 0, 
            "byteLength" : 57600, 
            "byteOffset" : 72612, 
            "target" : 34962
        }, 
        {
            "buffer" : 0, 
            "byteLength" : 10776, 
            "byteOffset" : 130212, 
            "target" : 34963
        }, 
        {
            "buffer" : 0, 
            "byteLength" : 38400, 
            "byteOffset" : 140988, 
            "target" : 34962
        }, 
        {
            "buffer" : 0, 
            "byteLength" : 38400, 
            "byteOffset" : 179388, 
            "target" : 34962
        }, 
        {
            "buffer" : 0, 
            "byteLength" : 400, 
            "byteOffset" : 217788
        }, 
        {
            "buffer" : 0, 
            "byteLength" : 1200, 
            "byteOffset" : 218188
        }, 
        {
            "buffer" : 0, 
            "byteLength" : 400, 
            "byteOffset" : 219388
        }, 
        {
            "buffer" : 0, 
            "byteLength" : 1600, 
            "byteOffset" : 219788
        }
    ], 
    "buffers" : [
        {
            "byteLength" : 221388, 
            "uri" : "First_Attempt.bin"
        }
    ], 
    "materials" : [
        {
            "name" : "Material.001", 
            "pbrMetallicRoughness" : {
                "baseColorFactor" : [
                    0.640000066757203, 
                    0.3493608049953103, 
                    0.11215058732257166, 
                    1.0
                ], 
                "metallicFactor" : 0.0
            }
        }, 
        {
            "name" : "Material.002", 
            "pbrMetallicRoughness" : {
                "baseColorFactor" : [
                    0.04624404678112337, 
                    0.04624404678112337, 
                    0.04624404678112337, 
                    1.0
                ], 
                "metallicFactor" : 0.0
            }
        }
    ], 
    "meshes" : [
        {
            "name" : "Cube.004", 
            "primitives" : [
                {
                    "attributes" : {
                        "NORMAL" : 2, 
                        "POSITION" : 1
                    }, 
                    "indices" : 0
                }
            ]
        }, 
        {
            "name" : "Mesh.001", 
            "primitives" : [
                {
                    "attributes" : {
                        "NORMAL" : 5, 
                        "POSITION" : 4
                    }, 
                    "indices" : 3, 
                    "material" : 0
                }
            ]
        }, 
        {
            "name" : "Mesh", 
            "primitives" : [
                {
                    "attributes" : {
                        "NORMAL" : 8, 
                        "POSITION" : 7
                    }, 
                    "indices" : 6, 
                    "material" : 1
                }
            ]
        }
    ], 
    "nodes" : [
        {
            "name" : "Camera", 
            "rotation" : [
                0.783413290977478, 
                0.0013850341783836484, 
                -0.007712031714618206, 
                0.6214516758918762
            ], 
            "scale" : [
                0.9999998807907104, 
                0.9999998807907104, 
                0.9999998807907104
            ], 
            "translation" : [
                -0.018181800842285156, 
                -0.3767237663269043, 
                18.169475555419922
            ]
        }, 
        {
            "mesh" : 0, 
            "name" : "Cube", 
            "rotation" : [
                -8.146034247147327e-08, 
                0.0, 
                -0.0, 
                1.0
            ], 
            "scale" : [
                3.806042432785034, 
                0.07811093330383301, 
                8.847624778747559
            ], 
            "translation" : [
                0.0, 
                -0.2786853313446045, 
                -0.0
            ]
        }, 
        {
            "mesh" : 2, 
            "name" : "Cylinder", 
            "rotation" : [
                -8.146034957690063e-08, 
                0.0, 
                -0.0, 
                1.0
            ], 
            "scale" : [
                0.8194039463996887, 
                0.8194039463996887, 
                0.8194039463996887
            ], 
            "translation" : [
                0.0, 
                0.6628738045692444, 
                -7.627782344818115
            ]
        }, 
        {
            "mesh" : 1, 
            "name" : "Sphere", 
            "rotation" : [
                -8.146033536604591e-08, 
                0.0, 
                -0.0, 
                1.0
            ], 
            "translation" : [
                0.0, 
                0.8189839720726013, 
                7.400707721710205
            ]
        }, 
        {
            "name" : "Spot", 
            "translation" : [
                0.4714851379394531, 
                21.82168197631836, 
                -4.5679121017456055
            ]
        }, 
        {
            "name" : "Spot.001", 
            "translation" : [
                0.4714851379394531, 
                21.82168197631836, 
                3.92893385887146
            ]
        }
    ], 
    "scene" : 0, 
    "scenes" : [
        {
            "name" : "Scene", 
            "nodes" : [
                5, 
                3, 
                2, 
                4, 
                1, 
                0
            ]
        }
    ]
}
