{
    "accessors" : [
        {
            "bufferView" : 0, 
            "componentType" : 5123, 
            "count" : 2880, 
            "max" : [
                1983
            ], 
            "min" : [
                0
            ], 
            "type" : "SCALAR"
        }, 
        {
            "bufferView" : 1, 
            "componentType" : 5126, 
            "count" : 1984, 
            "max" : [
                1.000000238418579, 
                1.0, 
                1.0000003576278687
            ], 
            "min" : [
                -0.9999998211860657, 
                -1.0, 
                -0.9999991655349731
            ], 
            "type" : "VEC3"
        }, 
        {
            "bufferView" : 2, 
            "componentType" : 5126, 
            "count" : 1984, 
            "max" : [
                0.9904382228851318, 
                0.99513840675354, 
                0.9904382824897766
            ], 
            "min" : [
                -0.9904382228851318, 
                -0.99513840675354, 
                -0.9904387593269348
            ], 
            "type" : "VEC3"
        }, 
        {
            "bufferView" : 3, 
            "componentType" : 5123, 
            "count" : 3456, 
            "max" : [
                2303
            ], 
            "min" : [
                0
            ], 
            "type" : "SCALAR"
        }, 
        {
            "bufferView" : 4, 
            "componentType" : 5126, 
            "count" : 2304, 
            "max" : [
                1.25, 
                0.25, 
                1.2500001192092896
            ], 
            "min" : [
                -1.25, 
                -0.25, 
                -1.2500001192092896
            ], 
            "type" : "VEC3"
        }, 
        {
            "bufferView" : 5, 
            "componentType" : 5126, 
            "count" : 2304, 
            "max" : [
                0.9639959335327148, 
                0.9657869935035706, 
                0.9639958143234253
            ], 
            "min" : [
                -0.9639959931373596, 
                -0.9657869935035706, 
                -0.9639958739280701
            ], 
            "type" : "VEC3"
        }, 
        {
            "bufferView" : 6, 
            "componentType" : 5126, 
            "count" : 250, 
            "max" : [
                10.375
            ], 
            "min" : [
                0.0
            ], 
            "type" : "SCALAR"
        }, 
        {
            "bufferView" : 7, 
            "componentType" : 5126, 
            "count" : 250, 
            "max" : [
                0.13108393549919128, 
                7.929202079772949, 
                0.09901044517755508
            ], 
            "min" : [
                -0.20900920033454895, 
                4.023713111877441, 
                -1.0024844408035278
            ], 
            "type" : "VEC3"
        }, 
        {
            "bufferView" : 8, 
            "componentType" : 5126, 
            "count" : 250, 
            "max" : [
                10.375
            ], 
            "min" : [
                0.0
            ], 
            "type" : "SCALAR"
        }, 
        {
            "bufferView" : 9, 
            "componentType" : 5126, 
            "count" : 250, 
            "max" : [
                0.5252118110656738, 
                0.15981964766979218, 
                0.1183629184961319, 
                1.0
            ], 
            "min" : [
                -0.005165376700460911, 
                0.0, 
                -0.03132191672921181, 
                0.8404335379600525
            ], 
            "type" : "VEC4"
        }, 
        {
            "bufferView" : 10, 
            "componentType" : 5126, 
            "count" : 250, 
            "max" : [
                10.375
            ], 
            "min" : [
                0.0
            ], 
            "type" : "SCALAR"
        }, 
        {
            "bufferView" : 11, 
            "componentType" : 5126, 
            "count" : 250, 
            "max" : [
                1.0, 
                1.0, 
                1.0
            ], 
            "min" : [
                1.0, 
                1.0, 
                1.0
            ], 
            "type" : "VEC3"
        }
    ], 
    "animations" : [
        {
            "channels" : [
                {
                    "sampler" : 0, 
                    "target" : {
                        "node" : 0, 
                        "path" : "translation"
                    }
                }, 
                {
                    "sampler" : 1, 
                    "target" : {
                        "node" : 0, 
                        "path" : "rotation"
                    }
                }, 
                {
                    "sampler" : 2, 
                    "target" : {
                        "node" : 0, 
                        "path" : "scale"
                    }
                }
            ], 
            "samplers" : [
                {
                    "input" : 6, 
                    "interpolation" : "LINEAR", 
                    "output" : 7
                }, 
                {
                    "input" : 8, 
                    "interpolation" : "LINEAR", 
                    "output" : 9
                }, 
                {
                    "input" : 10, 
                    "interpolation" : "LINEAR", 
                    "output" : 11
                }
            ]
        }
    ], 
    "asset" : {
        "generator" : "Khronos Blender glTF 2.0 exporter", 
        "version" : "2.0"
    }, 
    "bufferViews" : [
        {
            "buffer" : 0, 
            "byteLength" : 5760, 
            "byteOffset" : 0, 
            "target" : 34963
        }, 
        {
            "buffer" : 0, 
            "byteLength" : 23808, 
            "byteOffset" : 5760, 
            "target" : 34962
        }, 
        {
            "buffer" : 0, 
            "byteLength" : 23808, 
            "byteOffset" : 29568, 
            "target" : 34962
        }, 
        {
            "buffer" : 0, 
            "byteLength" : 6912, 
            "byteOffset" : 53376, 
            "target" : 34963
        }, 
        {
            "buffer" : 0, 
            "byteLength" : 27648, 
            "byteOffset" : 60288, 
            "target" : 34962
        }, 
        {
            "buffer" : 0, 
            "byteLength" : 27648, 
            "byteOffset" : 87936, 
            "target" : 34962
        }, 
        {
            "buffer" : 0, 
            "byteLength" : 1000, 
            "byteOffset" : 115584
        }, 
        {
            "buffer" : 0, 
            "byteLength" : 3000, 
            "byteOffset" : 116584
        }, 
        {
            "buffer" : 0, 
            "byteLength" : 1000, 
            "byteOffset" : 119584
        }, 
        {
            "buffer" : 0, 
            "byteLength" : 4000, 
            "byteOffset" : 120584
        }, 
        {
            "buffer" : 0, 
            "byteLength" : 1000, 
            "byteOffset" : 124584
        }, 
        {
            "buffer" : 0, 
            "byteLength" : 3000, 
            "byteOffset" : 125584
        }
    ], 
    "buffers" : [
        {
            "byteLength" : 128584, 
            "uri" : "untitled.bin"
        }
    ], 
    "meshes" : [
        {
            "name" : "Sphere", 
            "primitives" : [
                {
                    "attributes" : {
                        "NORMAL" : 2, 
                        "POSITION" : 1
                    }, 
                    "indices" : 0
                }
            ]
        }, 
        {
            "name" : "Torus", 
            "primitives" : [
                {
                    "attributes" : {
                        "NORMAL" : 5, 
                        "POSITION" : 4
                    }, 
                    "indices" : 3
                }
            ]
        }
    ], 
    "nodes" : [
        {
            "mesh" : 0, 
            "name" : "Sphere", 
            "translation" : [
                0.0, 
                7.929202079772949, 
                -1.0024844408035278
            ]
        }, 
        {
            "mesh" : 1, 
            "name" : "Torus", 
            "translation" : [
                0.0, 
                3.156864881515503, 
                -0.0
            ]
        }
    ], 
    "scene" : 0, 
    "scenes" : [
        {
            "name" : "Scene", 
            "nodes" : [
                0, 
                1
            ]
        }
    ]
}
